<?xml version="1.0" standalone="no"?><!DOCTYPE svg PUBLIC "-//W3C//DTD SVG 1.1//EN"
        "http://www.w3.org/Graphics/SVG/1.1/DTD/svg11.dtd">
<svg t="1604753828909" class="icon" viewBox="0 0 1024 1024" version="1.1" xmlns="http://www.w3.org/2000/svg" p-id="7144"
     xmlns:xlink="http://www.w3.org/1999/xlink" width="300" height="300">
    <defs>
        <style type="text/css"></style>
    </defs>
    <path d="M0 512c0 282.7776 229.2224 512 512 512s512-229.2224 512-512S794.7776 0 512 0 0 229.2224 0 512z"
          fill="#FEC43C" p-id="7145"></path>
    <path d="M1024 417.3312C975.36 178.8416 767.488 0 517.1712 0 231.68 0 0 234.2912 0 523.008c0 126.5152 44.4928 241.6128 117.9136 331.5712a602.2144 602.2144 0 0 0 295.8336 76.288c304.128 0 556.4416-221.696 610.2528-513.536z"
          fill="#FFD73A" p-id="7146"></path>
    <path d="M186.1632 325.8368a93.0816 93.0816 0 1 0 186.2144 0 93.0816 93.0816 0 0 0-186.2144 0zM651.6224 325.8368a93.0816 93.0816 0 1 0 186.2144 0 93.0816 93.0816 0 0 0-186.2144 0zM488.704 791.296c-128.768 0-235.9808-102.0416-255.6416-236.3392-2.9184-22.528 12.8-42.9568 34.4576-42.9568h442.4192c21.6576 0 37.376 20.4288 34.4576 43.008-19.712 134.2464-126.8736 236.288-255.6928 236.288z"
          fill="#873A18" p-id="7147"></path>
    <path d="M710.656 512H267.5712c-21.7088 0-37.4272 14.4896-34.5088 30.5152 1.024 5.3248 1.9968 10.7008 3.9424 16.0256h503.1936c1.9968-5.3248 2.9696-10.7008 3.9424-16.0256 3.9424-16.0256-12.8-30.5152-33.4848-30.5152z"
          fill="#FFFFFF" p-id="7148"></path>
    <path d="M562.2272 651.6224c-29.7984 0-56.6272 15.104-73.5232 38.1952a88.6272 88.6272 0 0 0-73.472-38.1952 90.112 90.112 0 0 0-89.3952 82.432 257.6384 257.6384 0 0 0 162.8672 57.2416 257.6384 257.6384 0 0 0 162.9184-57.2928 90.112 90.112 0 0 0-89.3952-82.3808z"
          fill="#F44444" p-id="7149"></path>
</svg>